Coordinates
version=1
nRows=24
nColumns=22
inDegrees=yes

Units are S.I. units (second, meters, Newtons, ...)
If the header above contains a line with 'inDegrees', this indicates whether rotational values are in degrees (yes) or radians (no).

endheader
time	pelvis_tilt	pelvis_list	pelvis_rotation	pelvis_tx	pelvis_ty	pelvis_tz	hip_flexion_r	hip_adduction_r	hip_rotation_r	knee_angle_r	ankle_angle_r	subtalar_angle_r	hip_flexion_l	hip_adduction_l	hip_rotation_l	knee_angle_l	ankle_angle_l	subtalar_angle_l	lumbar_extension	lumbar_bending	lumbar_rotation
      1.70000000	      4.21721055	     -2.90731182	     66.12985843	      0.88159092	      0.94312761	      0.42745441	     11.88599667	      4.65547631	      5.62076788	    -20.84202429	     10.93682103	      6.08254559	     28.46297780	     -8.08441219	     -9.49213749	    -73.11255030	      2.00134702	     -1.63851126	     -9.07045054	      6.34985683	      2.12978409
      1.71000000	      4.17786705	     -2.83624740	     66.63473272	      0.88387400	      0.94372573	      0.41979291	     11.02392270	      4.45110568	      5.20015939	    -20.38920262	     11.33222518	      6.04812054	     29.53026352	     -8.36464324	     -9.82846074	    -72.22221140	      2.63029617	     -1.92591712	     -9.12008385	      6.24304360	      2.54852389
      1.72000000	      4.20385653	     -2.65564416	     67.18199702	      0.88603099	      0.94441920	      0.41200678	      9.98435654	      4.25688406	      4.68192943	    -19.86825467	     11.68202349	      5.99368665	     30.33405448	     -8.62056219	    -10.13234502	    -71.04131163	      3.07904069	     -2.43619869	     -9.31213743	      6.15641017	      2.89649321
      1.73000000	      4.22060980	     -2.55680023	     67.73243849	      0.88807541	      0.94478188	      0.40425698	      9.07170612	      4.09886433	      4.13409433	    -19.41666932	     12.06203968	      5.95887764	     31.13952012	     -8.86940911	    -10.40912086	    -69.65345528	      3.56144781	     -2.70826046	     -9.41665420	      6.09640090	      3.25350169
      1.74000000	      4.25408329	     -2.45749444	     68.28406286	      0.89003907	      0.94500936	      0.39648604	      8.14318502	      3.97253214	      3.61335213	    -18.95294037	     12.45608696	      5.93417538	     31.82738812	     -9.09494029	    -10.66630515	    -68.02946580	      3.98675729	     -2.95916665	     -9.53218454	      6.04755704	      3.60835262
      1.75000000	      4.30105853	     -2.37216906	     68.83610707	      0.89191702	      0.94506038	      0.38867824	      7.23903576	      3.87387740	      3.05919673	    -18.51912421	     12.85001011	      5.91518144	     32.41759898	     -9.31811608	    -10.94013391	    -66.19189792	      4.36980979	     -3.18429308	     -9.63625650	      6.01796654	      3.93828921
      1.76000000	      4.35883282	     -2.28928608	     69.38522202	      0.89369729	      0.94497323	      0.38083682	      6.33036358	      3.80095051	      2.53805107	    -18.08312091	     13.24595916	      5.90361462	     32.89626529	     -9.50958966	    -11.21126791	    -64.14020055	      4.69705500	     -3.42690434	     -9.74257384	      5.99745205	      4.26738173
      1.77000000	      4.42404482	     -2.21791205	     69.93451541	      0.89536411	      0.94471727	      0.37294313	      5.45142707	      3.74576905	      1.98257488	    -17.68748914	     13.63747963	      5.88428253	     33.28119904	     -9.68021525	    -11.50517752	    -61.89940153	      4.97637792	     -3.66927245	     -9.83537864	      5.99176509	      4.57913028
      1.78000000	      4.49351922	     -2.15648919	     70.48368917	      0.89691256	      0.94430365	      0.36500654	      4.59625296	      3.70797594	      1.42962412	    -17.32162706	     14.03029201	      5.85288623	     33.57242400	     -9.81159490	    -11.80792657	    -59.47638672	      5.21294045	     -3.92437650	     -9.91631492	      5.99302946	      4.88369437
      1.79000000	      4.56440465	     -2.10464800	     71.03103614	      0.89834414	      0.94374030	      0.35701773	      3.76267005	      3.68422775	      0.88383868	    -16.98145504	     14.42096668	      5.80740478	     33.77288199	     -9.90302832	    -12.13014677	    -56.88615086	      5.40182697	     -4.19456986	     -9.98242829	      5.99850476	      5.16605461
      1.80000000	      4.63407061	     -2.06251278	     71.58298313	      0.89963077	      0.94302417	      0.34896878	      2.95360560	      3.66884365	      0.34734454	    -16.66997822	     14.80978132	      5.74762226	     33.89092537	     -9.94670940	    -12.46912853	    -54.15035963	      5.55284892	     -4.48045550	    -10.03126430	      6.00903569	      5.42533415
      1.81000000	      4.69891494	     -2.03444461	     72.14143726	      0.90074940	      0.94215298	      0.34085429	      2.17796263	      3.65749860	     -0.18557919	    -16.39364824	     15.20059069	      5.67594240	     33.93810733	     -9.93570058	    -12.82119754	    -51.28941328	      5.67949585	     -4.77187196	    -10.05712482	      6.02654128	      5.65197059
      1.82000000	      4.75871182	     -2.02733681	     72.70886309	      0.90171984	      0.94111620	      0.33268803	      1.44981144	      3.65192642	     -0.72716304	    -16.16362107	     15.60186780	      5.59822877	     33.93319633	     -9.87266552	    -13.17401032	    -48.33312144	      5.78491875	     -5.04456489	    -10.05112684	      6.04531170	      5.85110964
      1.83000000	      4.82120613	     -2.02840282	     73.28271659	      0.90256470	      0.93995408	      0.32445147	      0.74001006	      3.65940968	     -1.24048922	    -15.95840906	     15.99310195	      5.52915942	     33.86361040	     -9.76976172	    -13.53554922	    -45.30727869	      5.87321399	     -5.33680971	    -10.02620828	      6.06728225	      6.01904491
      1.84000000	      4.87820814	     -2.04978096	     73.86608797	      0.90323565	      0.93864309	      0.31617333	      0.08799057	      3.66810971	     -1.75967725	    -15.81646965	     16.39503274	      5.47440986	     33.75763137	     -9.61179127	    -13.87715209	    -42.24395652	      5.97045064	     -5.61690339	     -9.97383579	      6.09106015	      6.16566218
      1.85000000	      4.91790409	     -2.11705134	     74.46843203	      0.90372700	      0.93713249	      0.30785914	     -0.45691508	      3.66787295	     -2.33440897	    -15.77341771	     16.84494343	      5.41670078	     33.66583775	     -9.40348290	    -14.20583185	    -39.19423286	      6.07625575	     -5.80359669	     -9.85844673	      6.11405230	      6.27311919
      1.86000000	      4.97643927	     -2.14745317	     75.06367489	      0.90413131	      0.93563209	      0.29945319	     -1.05750187	      3.68855041	     -2.80540733	    -15.71542960	     17.23036142	      5.42611716	     33.47256886	     -9.17800824	    -14.54543283	    -36.16991700	      6.18765956	     -6.09868938	     -9.78182035	      6.13537494	      6.36872092
      1.87000000	      5.01247710	     -2.25607952	     75.67642274	      0.90437587	      0.93389512	      0.29102814	     -1.49364343	      3.69914559	     -3.35356976	    -15.79544337	     17.67666010	      5.40320427	     33.35968403	     -8.91698796	    -14.85978233	    -33.25650588	      6.32117445	     -6.25503971	     -9.60394589	      6.15148721	      6.44028129
      1.88000000	      5.06623762	     -2.29463418	     76.27240202	      0.90450879	      0.93225574	      0.28251367	     -2.00760185	      3.71393538	     -3.80201152	    -15.88181294	     18.05572199	      5.48135842	     33.12869558	     -8.64161804	    -15.19256404	    -30.44892038	      6.45133894	     -6.53132421	     -9.51022272	      6.16175499	      6.51221024
      1.89000000	      5.11013092	     -2.37761734	     76.86975712	      0.90452866	      0.93048819	      0.27395207	     -2.41316536	      3.72432723	     -4.27104779	    -16.07868700	     18.45152027	      5.54328241	     32.95580165	     -8.35575733	    -15.51711858	    -27.84483180	      6.58930374	     -6.72448136	     -9.35840688	      6.16275020	      6.57851631
      1.90000000	      5.15208112	     -2.45312180	     77.45661813	      0.90445846	      0.92871733	      0.26526404	     -2.81025234	      3.72787547	     -4.70863729	    -16.31683537	     18.81360766	      5.64288367	     32.78267130	     -8.06823385	    -15.87113541	    -25.48427496	      6.74840711	     -6.92763713	     -9.20338726	      6.14743443	      6.64664187
      1.91000000	      5.18701328	     -2.56464236	     78.03968698	      0.90427634	      0.92686987	      0.25648988	     -3.12101492	      3.72487820	     -5.13787732	    -16.64974553	     19.16499217	      5.67308173	     32.68737618	     -7.78192254	    -16.22029195	    -23.43727371	      6.91415578	     -7.04071563	     -9.00005183	      6.12288025	      6.70561423
      1.92000000	      5.23406508	     -2.57234823	     78.58980216	      0.90402347	      0.92524670	      0.24753032	     -3.55894877	      3.70862219	     -5.47575184	    -16.97388205	     19.42621414	      5.87448697	     32.48377367	     -7.49873955	    -16.58559154	    -21.69171009	      7.05379300	     -7.27163051	     -8.91274132	      6.07063743	      6.80198055
      1.93000000	      5.26932403	     -2.61353254	     79.13361493	      0.90366101	      0.92358300	      0.23842307	     -3.92816625	      3.67797496	     -5.80175871	    -17.37276289	     19.65722975	      6.03652822	     32.37664327	     -7.21980224	    -16.91907756	    -20.34446902	      7.19022409	     -7.42977718	     -8.77355767	      6.00394565	      6.88468875
